# xmcd
#
# Track frame offsets: 
#        150
#        16860
#        40283
#        54400
#        63964
#        78749
#        90497
#        100486
#        121467
#        133151
#        144116
#
# Disc length: 2671 seconds
#
# Revision: 0
# Processed by: cddbd v1.5.2PL0 Copyright (c) Steve Scherf et al.
# Submitted via: ExactAudioCopy v0.99pb5
#
DISCID=8f0a6d0b
DTITLE=Those Poor Bastards - Gospel Haunted
DYEAR=2010
DGENRE=Gothic Country
TTITLE0=Glory Amen
TTITLE1=Judgement is Coming
TTITLE2=At the Crossroads
TTITLE3=Serpents
TTITLE4=A Secret
TTITLE5=Chemical Church
TTITLE6=Mess Around
TTITLE7=Open Wounds
TTITLE8=Wealth is Death
TTITLE9=Forgive Me Matilda
TTITLE10=Ill At Ease
EXTD=
EXTT0=
EXTT1=
EXTT2=
EXTT3=
EXTT4=
EXTT5=
EXTT6=
EXTT7=
EXTT8=
EXTT9=
EXTT10=
PLAYORDER=
